HIERARCHY
ROOT Reference
{
  OFFSET 0 0 0
  CHANNELS 6 Xposition Yposition Zposition Zrotation Xrotation Yrotation
  JOINT Hips
  {
    OFFSET 251.394 724.17 483.536
    CHANNELS 3 Zrotation Xrotation Yrotation
    JOINT RightUpLeg
    {
      OFFSET -0.450515 -23.4426 -1.37224
      CHANNELS 3 Zrotation Xrotation Yrotation
      JOINT RightLeg
      {
        OFFSET 112.821 0.0872427 -0.321027
        CHANNELS 3 Zrotation Xrotation Yrotation
        JOINT RightFoot
        {
          OFFSET 105.718 0.000193788 0.0213165
          CHANNELS 3 Zrotation Xrotation Yrotation
          JOINT RightToeBase
          {
            OFFSET 37.638 -0.000116272 0.00224792
            CHANNELS 3 Zrotation Xrotation Yrotation
            JOINT RightToeEnd
            {
              OFFSET 21.2112 0.114605 -0.000138184
              CHANNELS 3 Zrotation Xrotation Yrotation
              End Site
              {
                OFFSET 0 0 0
              }
            }
          }
        }
      }
    }
    JOINT LeftUpLeg
    {
      OFFSET -0.449508 23.4315 -1.37054
      CHANNELS 3 Zrotation Xrotation Yrotation
      JOINT LeftLeg
      {
        OFFSET 112.821 -0.0485242 -0.372458
        CHANNELS 3 Zrotation Xrotation Yrotation
        JOINT LeftFoot
        {
          OFFSET 105.716 0.00496094 -0.0229443
          CHANNELS 3 Zrotation Xrotation Yrotation
          JOINT LeftToeBase
          {
            OFFSET 37.639 0 0.00158905
            CHANNELS 3 Zrotation Xrotation Yrotation
            JOINT LeftToeEnd
            {
              OFFSET 21.2113 -0.125031 -0.00017438
              CHANNELS 3 Zrotation Xrotation Yrotation
              End Site
              {
                OFFSET 0 0 0
              }
            }
          }
        }
      }
    }
    JOINT Spine
    {
      OFFSET -5.01225 0.000463591 -9.60395
      CHANNELS 3 Zrotation Xrotation Yrotation
      JOINT Spine1
      {
        OFFSET 26.0222 -0.000271301 -0.000155029
        CHANNELS 3 Zrotation Xrotation Yrotation
        JOINT Spine2
        {
          OFFSET 27.173 -0.000155029 -0.000310058
          CHANNELS 3 Zrotation Xrotation Yrotation
          JOINT Spine3
          {
            OFFSET 36.3953 -0.000232544 7.75146e-005
            CHANNELS 3 Zrotation Xrotation Yrotation
            JOINT Neck
            {
              OFFSET 36.4331 0 -3.00261
              CHANNELS 3 Zrotation Xrotation Yrotation
              JOINT Head
              {
                OFFSET 23.0407 -0.000232544 -0.000310058
                CHANNELS 3 Zrotation Xrotation Yrotation
                End Site
                {
                  OFFSET 0 0 0
                }
              }
            }
            JOINT LeftShoulder
            {
              OFFSET 20.1317 6.74168 -12.6061
              CHANNELS 3 Zrotation Xrotation Yrotation
              JOINT LeftArm
              {
                OFFSET 34.2172 -5.81359e-005 7.75146e-005
                CHANNELS 3 Zrotation Xrotation Yrotation
                JOINT LeftForeArm
                {
                  OFFSET 65.4129 -0.0821605 0.0585235
                  CHANNELS 3 Zrotation Xrotation Yrotation
                  JOINT LeftHand
                  {
                    OFFSET 67.3883 0.0359667 0.0112396
                    CHANNELS 3 Zrotation Xrotation Yrotation
                    JOINT LeftHandThumb1
                    {
                      OFFSET 8.78386 2.85353 -6.05362
                      CHANNELS 3 Zrotation Xrotation Yrotation
                      JOINT LeftHandThumb2
                      {
                        OFFSET 8.25498 -0.000116272 -0.000174407
                        CHANNELS 3 Zrotation Xrotation Yrotation
                        JOINT LeftHandThumb3
                        {
                          OFFSET 7.24822 0.000310058 5.81358e-005
                          CHANNELS 3 Zrotation Xrotation Yrotation
                          JOINT LeftHandThumb4
                          {
                            OFFSET 7.0004 -3.87568e-005 -0.000310057
                            CHANNELS 3 Zrotation Xrotation Yrotation
                            End Site
                            {
                              OFFSET 0 0 0
                            }
                          }
                        }
                      }
                    }
                    JOINT LeftHandIndex1
                    {
                      OFFSET 24.0991 -1.01537 -5.40558
                      CHANNELS 3 Zrotation Xrotation Yrotation
                      JOINT LeftHandIndex2
                      {
                        OFFSET 7.26759 -0.000290679 -0.000465086
                        CHANNELS 3 Zrotation Xrotation Yrotation
                        JOINT LeftHandIndex3
                        {
                          OFFSET 7.13628 -1.93787e-005 0.000232543
                          CHANNELS 3 Zrotation Xrotation Yrotation
                          JOINT LeftHandIndex4
                          {
                            OFFSET 5.46699 9.68932e-005 -0.000387571
                            CHANNELS 3 Zrotation Xrotation Yrotation
                            End Site
                            {
                              OFFSET 0 0 0
                            }
                          }
                        }
                      }
                    }
                    JOINT LeftHandMiddle1
                    {
                      OFFSET 24.4604 -2.52837 0.918567
                      CHANNELS 3 Zrotation Xrotation Yrotation
                      JOINT LeftHandMiddle2
                      {
                        OFFSET 7.41627 -5.81359e-005 0.000116271
                        CHANNELS 3 Zrotation Xrotation Yrotation
                        JOINT LeftHandMiddle3
                        {
                          OFFSET 8.76829 3.87573e-005 -7.75142e-005
                          CHANNELS 3 Zrotation Xrotation Yrotation
                          JOINT LeftHandMiddle4
                          {
                            OFFSET 6.07588 -0.00013565 -5.81356e-005
                            CHANNELS 3 Zrotation Xrotation Yrotation
                            End Site
                            {
                              OFFSET 0 0 0
                            }
                          }
                        }
                      }
                    }
                    JOINT LeftHandRing1
                    {
                      OFFSET 22.465 -1.97467 6.3466
                      CHANNELS 3 Zrotation Xrotation Yrotation
                      JOINT LeftHandRing2
                      {
                        OFFSET 7.36666 -0.000232544 0.000387571
                        CHANNELS 3 Zrotation Xrotation Yrotation
                        JOINT LeftHandRing3
                        {
                          OFFSET 8.07624 -0.000465087 -0.000203475
                          CHANNELS 3 Zrotation Xrotation Yrotation
                          JOINT LeftHandRing4
                          {
                            OFFSET 6.04433 0.00013565 3.87571e-005
                            CHANNELS 3 Zrotation Xrotation Yrotation
                            End Site
                            {
                              OFFSET 0 0 0
                            }
                          }
                        }
                      }
                    }
                    JOINT LeftHandPinky1
                    {
                      OFFSET 19.5278 0.352933 10.4295
                      CHANNELS 3 Zrotation Xrotation Yrotation
                      JOINT LeftHandPinky2
                      {
                        OFFSET 6.16525 5.8136e-005 -0.000251921
                        CHANNELS 3 Zrotation Xrotation Yrotation
                        JOINT LeftHandPinky3
                        {
                          OFFSET 6.14448 -0.000329434 -0.00510625
                          CHANNELS 3 Zrotation Xrotation Yrotation
                          JOINT LeftHandPinky4
                          {
                            OFFSET 4.98555 0.000116272 0.000116271
                            CHANNELS 3 Zrotation Xrotation Yrotation
                            End Site
                            {
                              OFFSET 0 0 0
                            }
                          }
                        }
                      }
                    }
                  }
                }
              }
            }
            JOINT RightShoulder
            {
              OFFSET 20.1309 -6.74152 -12.6063
              CHANNELS 3 Zrotation Xrotation Yrotation
              JOINT RightArm
              {
                OFFSET 34.2171 7.75146e-005 7.75146e-005
                CHANNELS 3 Zrotation Xrotation Yrotation
                JOINT RightForeArm
                {
                  OFFSET 65.4492 0.242543 -0.176501
                  CHANNELS 3 Zrotation Xrotation Yrotation
                  JOINT RightHand
                  {
                    OFFSET 67.3888 -0.0867388 0.0597442
                    CHANNELS 3 Zrotation Xrotation Yrotation
                    JOINT RightHandThumb1
                    {
                      OFFSET 8.78307 -2.85357 -6.05302
                      CHANNELS 3 Zrotation Xrotation Yrotation
                      JOINT RightHandThumb2
                      {
                        OFFSET 8.25493 -7.75145e-005 0
                        CHANNELS 3 Zrotation Xrotation Yrotation
                        JOINT RightHandThumb3
                        {
                          OFFSET 7.24797 -0.000174408 0.000155029
                          CHANNELS 3 Zrotation Xrotation Yrotation
                          JOINT RightHandThumb4
                          {
                            OFFSET 7.00062 0 0
                            CHANNELS 3 Zrotation Xrotation Yrotation
                            End Site
                            {
                              OFFSET 0 0 0
                            }
                          }
                        }
                      }
                    }
                    JOINT RightHandIndex1
                    {
                      OFFSET 24.0991 1.01525 -5.40578
                      CHANNELS 3 Zrotation Xrotation Yrotation
                      JOINT RightHandIndex2
                      {
                        OFFSET 7.26773 7.75144e-005 0.000232543
                        CHANNELS 3 Zrotation Xrotation Yrotation
                        JOINT RightHandIndex3
                        {
                          OFFSET 7.13572 -0.000310058 3.87571e-005
                          CHANNELS 3 Zrotation Xrotation Yrotation
                          JOINT RightHandIndex4
                          {
                            OFFSET 5.46717 0 3.87572e-005
                            CHANNELS 3 Zrotation Xrotation Yrotation
                            End Site
                            {
                              OFFSET 0 0 0
                            }
                          }
                        }
                      }
                    }
                    JOINT RightHandMiddle1
                    {
                      OFFSET 24.4603 2.52899 0.918547
                      CHANNELS 3 Zrotation Xrotation Yrotation
                      JOINT RightHandMiddle2
                      {
                        OFFSET 7.41641 -0.000116272 -0.000116272
                        CHANNELS 3 Zrotation Xrotation Yrotation
                        JOINT RightHandMiddle3
                        {
                          OFFSET 8.76765 -3.87577e-005 0.000232543
                          CHANNELS 3 Zrotation Xrotation Yrotation
                          JOINT RightHandMiddle4
                          {
                            OFFSET 6.07609 -0.000193787 -0.000116271
                            CHANNELS 3 Zrotation Xrotation Yrotation
                            End Site
                            {
                              OFFSET 0 0 0
                            }
                          }
                        }
                      }
                    }
                    JOINT RightHandRing1
                    {
                      OFFSET 22.465 1.97571 6.34696
                      CHANNELS 3 Zrotation Xrotation Yrotation
                      JOINT RightHandRing2
                      {
                        OFFSET 7.36684 0.000193786 0.000155029
                        CHANNELS 3 Zrotation Xrotation Yrotation
                        JOINT RightHandRing3
                        {
                          OFFSET 8.07614 -0.000271301 0
                          CHANNELS 3 Zrotation Xrotation Yrotation
                          JOINT RightHandRing4
                          {
                            OFFSET 6.04468 0.000232543 0
                            CHANNELS 3 Zrotation Xrotation Yrotation
                            End Site
                            {
                              OFFSET 0 0 0
                            }
                          }
                        }
                      }
                    }
                    JOINT RightHandPinky1
                    {
                      OFFSET 19.5277 -0.352346 10.4296
                      CHANNELS 3 Zrotation Xrotation Yrotation
                      JOINT RightHandPinky2
                      {
                        OFFSET 6.16508 0 0.000232543
                        CHANNELS 3 Zrotation Xrotation Yrotation
                        JOINT RightHandPinky3
                        {
                          OFFSET 6.14396 -0.000155048 -0.0048834
                          CHANNELS 3 Zrotation Xrotation Yrotation
                          JOINT RightHandPinky4
                          {
                            OFFSET 4.98577 -7.75146e-005 -7.75143e-005
                            CHANNELS 3 Zrotation Xrotation Yrotation
                            End Site
                            {
                              OFFSET 0 0 0
                            }
                          }
                        }
                      }
                    }
                  }
                }
              }
            }
          }
        }
      }
    }
  }
}
MOTION
Frames:	4
Frame Time:	0.0333333
0 0 0 -90 -7.01671e-015 -180 1.36444 -7.34348 -106.052 -176.433 14.6602 -26.7232 0.706651 -0.062269 -95.2457 9.96764 14.7786 41.0908 -0.561803 0.164594 52.0241 -0.000514211 -0.000141957 -86.4973 -169.894 10.9972 -24.9191 -9.64923 -4.31803 -98.1074 7.63365 -7.08342 27.0151 0.58226 -0.122734 56.819 -8.95434e-006 6.73335e-006 -86.4975 0.16386 0.553404 126.525 -1.40672 -0.842508 -1.36662 -2.72321 -0.995113 -3.50616 -3.10847 2.57256 11.949 10.9288 -1.61888 16.6817 9.76536 -6.96897 43.6109 96.3922 19.8397 -24.2826 45.6392 12.6009 72.1334 -0.789224 4.57968 133.56 23.956 -55.7145 24.2438 -149.04 0.684945 155.334 0.000383359 -6.45693e-005 25.8347 0.000262177 -1.45162e-005 28.0495 0.000240442 -0.00131352 -0.000138308 158.267 73.5886 -138.33 -0.000438583 -0.000358501 2.81585 0.000990348 -0.000750964 4.84063 -0.000555809 -0.000521651 -0.000474272 151.999 82.1019 -125.631 0.000156593 -0.000355755 32.1353 0.00138685 -0.000550043 33.8636 -0.000527778 -0.000303034 0.000117619 85.2512 84.6 -49.9265 0.000355254 -0.000812621 33.2752 0.00208285 -0.000203365 36.1342 -0.000632215 -0.000659953 0.00069342 87.44 72.3984 -48.4332 0.00138286 -0.00101644 34.8968 0.000746326 -6.8939e-006 39.2136 -4.99448e-005 -2.47599e-005 -0.000412641 -84.841 -23.714 -17.137 -32.6981 7.03516 -10.8665 -3.06397 -6.13032 132.226 63.3039 -40.3927 31.2473 147.556 -21.6904 160.205 -0.000149622 0.000237172 25.8347 6.82121e-005 0.00025002 28.0495 -1.52588e-005 -6.10351e-005 -180 177.937 -81.2518 -136.128 -0.000118916 -0.000584257 27.5066 0.000166558 0.000306424 29.9325 -9.15529e-005 -3.05176e-005 -180 147.125 -85.3813 -168.508 -0.000114391 0.000187864 43.4913 -0.000284816 0.000506434 18.9685 -1.52588e-005 3.05175e-005 -180 -85.2946 -84.5997 -32.2544 8.86388e-005 -0.000231503 44.6311 -0.00058719 0.00103905 21.239 0.0028534 -0.00170898 -180 -87.4406 -72.3985 -30.7136 -0.000266139 0.000804195 46.2528 -0.000260014 0.000300939 24.3185 4.07067e-012 -1.52588e-005 -180 
0 0 0 -90 -7.01671e-015 -180 1.36363 -7.34163 -106.048 -176.433 14.6593 -26.7187 0.707182 -0.0623253 -95.2465 9.96661 14.779 41.0915 -0.561803 0.164591 52.0241 -0.000514213 -0.000152148 -86.4973 -169.894 10.9965 -24.9147 -9.64821 -4.31839 -98.1063 7.62976 -7.08224 27.0139 0.58226 -0.122737 56.819 -8.98372e-006 -6.42891e-006 -86.4975 0.163951 0.552544 126.524 -1.40846 -0.837677 -1.37051 -2.72514 -0.99016 -3.50978 -3.11056 2.57775 11.9456 10.9214 -1.62082 16.6641 9.75567 -6.97168 43.5936 96.3917 19.84 -24.284 45.6539 12.5519 72.0999 -0.789137 4.49683 133.559 23.956 -55.7145 24.2438 -149.04 0.684945 155.334 0.000383524 -6.69874e-005 25.8347 0.000262293 -1.68751e-005 28.0495 0.000240442 -0.00131594 -0.000138308 158.267 73.5886 -138.33 -0.000439435 -0.000357608 2.81651 0.000992929 -0.000751729 4.84227 -0.000555809 -0.000524066 -0.000474272 151.999 82.1019 -125.63 0.000159083 -0.000357736 32.1353 0.00139086 -0.000559508 33.8636 -0.000527777 -0.000303041 0.000117619 85.2512 84.6 -49.9265 0.00035363 -0.000815996 33.2751 0.00208439 -0.00020851 36.1342 -0.000632213 -0.000662367 0.00069342 87.44 72.3984 -48.4332 0.001383 -0.00101994 34.8968 0.000746824 -7.30902e-006 39.2136 -4.99521e-005 -2.47599e-005 -0.000412641 -84.841 -23.714 -17.1371 -32.7053 7.03346 -10.8947 -3.06402 -6.12501 132.235 63.3016 -40.3956 31.2539 147.556 -21.6904 160.205 -0.000149607 0.000237152 25.8347 6.82161e-005 0.000245212 28.0495 -1.52588e-005 -6.10351e-005 -180 177.937 -81.2518 -136.128 -0.000118913 -0.000586666 27.5066 0.000166627 0.000302281 29.9325 -9.15529e-005 -3.05176e-005 -180 147.125 -85.3813 -168.508 -0.000114138 0.000184695 43.4913 -0.000285125 0.000503914 18.9685 -1.52588e-005 3.05175e-005 -180 -85.2946 -84.5997 -32.2544 9.03085e-005 -0.000236681 44.6311 -0.000586892 0.00103675 21.239 0.0028534 -0.00172424 -180 -87.4406 -72.3985 -30.7136 -0.00026649 0.000803833 46.2528 -0.000259827 0.000301022 24.3185 4.05664e-012 -1.52588e-005 -180 
0 0 0 -90 -7.01671e-015 -180 1.36236 -7.33667 -106.044 -176.449 14.6604 -26.7108 0.707728 -0.0623885 -95.2473 9.96558 14.7793 41.0922 -0.561803 0.164587 52.024 -0.000514212 -0.000163053 -86.4973 -169.893 10.9939 -24.9088 -9.64724 -4.3187 -98.1052 7.62587 -7.08106 27.0128 0.58226 -0.12274 56.819 -8.98088e-006 -2.17215e-005 -86.4975 0.164218 0.550215 126.521 -1.41343 -0.825441 -1.37639 -2.73055 -0.977822 -3.51497 -3.11654 2.59047 11.9412 10.914 -1.62246 16.6481 9.74619 -6.97379 43.5779 96.3901 19.8407 -24.2876 45.6452 12.4833 72.0883 -0.789076 4.44455 133.559 23.956 -55.7145 24.2438 -149.04 0.684945 155.334 0.000383428 -6.71067e-005 25.8347 0.000262608 -1.91405e-005 28.0495 0.000240442 -0.00132077 -0.000138308 158.267 73.5886 -138.33 -0.000437679 -0.00035893 2.81717 0.000992167 -0.000752635 4.84392 -0.000555808 -0.000524066 -0.000474273 151.999 82.1019 -125.63 0.000156959 -0.000363338 32.1353 0.00139688 -0.000573928 33.8636 -0.000527778 -0.000303047 0.000117619 85.251 84.6 -49.9263 0.000354326 -0.000822168 33.2752 0.00208555 -0.000215865 36.1342 -0.000632215 -0.000664782 0.000693421 87.44 72.3984 -48.4332 0.00138299 -0.00102412 34.8968 0.000747374 -1.12576e-005 39.2136 -4.99448e-005 -2.47599e-005 -0.000412641 -84.841 -23.714 -17.137 -32.7148 7.03246 -10.964 -3.06415 -6.11364 132.258 63.3002 -40.4008 31.2639 147.556 -21.6905 160.205 -0.000154883 0.000234537 25.8347 6.90796e-005 0.00024089 28.0495 -1.52588e-005 -6.10351e-005 -180 177.937 -81.2518 -136.128 -0.000119362 -0.000593717 27.5066 0.000166727 0.000298924 29.9325 -9.15529e-005 -4.57763e-005 -180 147.125 -85.3812 -168.508 -0.000110331 0.000183491 43.4913 -0.000286091 0.000500166 18.9685 -1.52588e-005 1.52588e-005 -180 -85.2946 -84.5997 -32.2544 8.76633e-005 -0.000246117 44.6311 -0.000587581 0.00103406 21.239 0.0028534 -0.00172424 -180 -87.4406 -72.3985 -30.7137 -0.00026632 0.000801599 46.2528 -0.000260003 0.000300938 24.3185 4.07067e-012 -1.52588e-005 -180 
0 0 0 -90 -7.01671e-015 -180 1.36076 -7.32936 -106.038 -176.424 14.6507 -26.7067 0.709883 -0.0626089 -95.2492 9.96149 14.7807 41.0941 -0.561804 0.164581 52.0241 -0.000514207 -0.000184954 -86.4973 -169.892 10.9899 -24.9019 -9.64623 -4.31901 -98.104 7.62199 -7.07989 27.0116 0.58226 -0.122746 56.819 -8.97901e-006 -5.25444e-005 -86.4975 0.164626 0.546785 126.516 -1.42084 -0.807661 -1.38369 -2.73855 -0.95996 -3.52126 -3.12542 2.60883 11.9361 10.9067 -1.62382 16.6339 9.73712 -6.97539 43.5638 96.3879 19.8417 -24.293 45.6183 12.4011 72.0942 -0.789036 4.4176 133.558 23.956 -55.7145 24.2439 -149.04 0.684958 155.334 0.000383514 -7.13114e-005 25.8347 0.000263329 -2.36135e-005 28.0495 0.000240442 -0.00132913 -0.000138308 158.267 73.5886 -138.33 -0.000438614 -0.000356287 2.81783 0.00099125 -0.000750059 4.84557 -0.000555808 -0.00052648 -0.000474273 151.999 82.1019 -125.63 0.000155254 -0.000371701 32.1353 0.00140368 -0.000594625 33.8636 -0.000527777 -0.000303052 0.000117619 85.2508 84.6 -49.9261 0.0003535 -0.000832681 33.2752 0.00208671 -0.000226409 36.1342 -0.000632213 -0.000667196 0.000693421 87.4399 72.3984 -48.4331 0.00138284 -0.00103308 34.8968 0.000747775 -1.74098e-005 39.2136 -4.99448e-005 -2.47599e-005 -0.000412641 -84.841 -23.714 -17.137 -32.7261 7.03208 -11.0642 -3.06435 -6.09777 132.293 63.3003 -40.4084 31.2775 147.556 -21.6905 160.205 -0.00015786 0.000233008 25.8347 7.07859e-005 0.000232209 28.0495 -1.52588e-005 -7.62939e-005 -180 177.937 -81.2518 -136.128 -0.000119338 -0.000604487 27.5066 0.00016736 0.000289936 29.9325 -9.15529e-005 -6.10351e-005 -180 147.125 -85.3812 -168.508 -0.000107718 0.000178745 43.4913 -0.000286772 0.000494016 18.9685 -1.52588e-005 7.01671e-015 -180 -85.2946 -84.5997 -32.2544 8.57631e-005 -0.000260763 44.6311 -0.000589061 0.00102865 21.239 0.0028534 -0.0017395 -180 -87.4406 -72.3985 -30.7137 -0.000265437 0.000800111 46.2528 -0.000261225 0.000297964 24.3185 1.2184e-011 -4.57763e-005 -180 
